PathFileType	4	(X/Y/Z)	AB10\squats_1.trc
DataRate	CameraRate	NumFrames	NumMarkers	Units	OrigDataRate	OrigDataStartFrame	OrigNumFrames
200.000000	200.000000	4	35	mm	200.000000	171	343
Frame#	Time	C7			LSHO			STRN			LASI			RASI			LPSI			RPSI			LGTR			RGTR			LTHL			LTHR			LKNE			LMKNE			LSHC			LSHL			LSHR			LANK			LMANK			LMT1			LMT5			LCAL			RTHC			RTHL			RTHR			RKNE			RMKNE			RSHC			RSHL			RSHR			RANK			RMANK			RMT1			RMT5			RCAL			LTHC			
		X1	Y1	Z1	X2	Y2	Z2	X3	Y3	Z3	X4	Y4	Z4	X5	Y5	Z5	X6	Y6	Z6	X7	Y7	Z7	X8	Y8	Z8	X9	Y9	Z9	X10	Y10	Z10	X11	Y11	Z11	X12	Y12	Z12	X13	Y13	Z13	X14	Y14	Z14	X15	Y15	Z15	X16	Y16	Z16	X17	Y17	Z17	X18	Y18	Z18	X19	Y19	Z19	X20	Y20	Z20	X21	Y21	Z21	X22	Y22	Z22	X23	Y23	Z23	X24	Y24	Z24	X25	Y25	Z25	X26	Y26	Z26	X27	Y27	Z27	X28	Y28	Z28	X29	Y29	Z29	X30	Y30	Z30	X31	Y31	Z31	X32	Y32	Z32	X33	Y33	Z33	X34	Y34	Z34	X35	Y35	Z35	

172	25.48	-3557.269981540397	1047.023402292943	2482.593307680543	-3581.919421766788	989.7932217076068	2633.62804476312	-3608.211027123083	871.9722719268873	2484.321944554337	-3379.362400926008	618.6760006116358	2605.934054038655	-3382.190268148166	603.4499747919297	2338.942643189121	-3204.030459036162	688.7814040024904	2522.441684971249	-3215.498430046807	690.9907488053026	2431.293497620465	-3307.795618934485	617.6644581114643	2678.120051059918	-3293.013873180354	598.2708033616805	2261.8990787973	-3537.96227307967	576.9549842337748	2645.5391897103	-3477.419628408456	406.2281266597087	2678.304733132451	-3643.700391408231	425.9715772201078	2724.617023796388	-3663.887376712793	410.2021693580664	2592.201777912445	-3543.518422124316	279.0660171420712	2728.564597107308	-3547.789687905497	164.7401083286342	2675.091696888654	-3458.627253196717	211.8015872018606	2655.801455864993	-3428.46849776689	98.93492655580152	2702.044620924437	-3458.889552169823	87.05097404074698	2615.99007865042	-3573.270720494342	62.10662548992219	2676.556402495798	-3516.313291225543	50.5219642270495	2763.120646629651	-3359.839974350738	74.39018416756768	2648.01346014267	-3515.403110281904	377.3209644196107	2328.035871071903	-3424.22430974651	495.7767335326485	2252.498469465866	-3546.554975493825	557.2354558761483	2339.668953726119	-3669.448577609099	394.7541052060021	2243.714950720844	-3684.415452832713	385.3113744229355	2367.231771344141	-3557.036135396704	167.4522849598262	2312.552262234101	-3482.237118023662	242.4336996051977	2292.958910134363	-3563.591467960391	272.0519225735003	2239.001611449369	-3425.763952200252	109.0671092857778	2269.245360340482	-3453.962878522649	98.35484879328007	2354.051957813378	-3570.633723341132	59.52787006063485	2291.584066529059	-3517.563619486401	51.64662786932014	2209.348413906678	-3354.161860956962	79.38524867720555	2322.432739150618	-3419.304348908113	533.3347004616458	2715.46091915639	
173	25.485	-3557.021706658717	1046.867487778953	2482.497501628306	-3581.678743907019	989.5478565059249	2633.527847477748	-3608.082655132579	871.8716951864778	2484.200854683571	-3379.451969761665	618.3755754919242	2605.809209945837	-3382.170241642783	603.1849408179609	2338.808669349809	-3204.078304797054	688.4604715838182	2522.355887418822	-3215.514394070428	690.665876951186	2431.207211974809	-3307.863647843258	617.3485296786245	2677.973119262372	-3292.986923233759	597.9758388538114	2261.769497899842	-3538.003203297394	576.7994994913956	2645.527386511827	-3477.513076542865	405.9471531130036	2678.327278004804	-3643.786841451014	425.894508633954	2724.700504221289	-3664.010548563239	410.0866415791071	2592.296719685276	-3543.612269322861	279.0577210189604	2728.609627650377	-3547.797030526715	164.6984095955881	2675.106642311062	-3458.683154156648	211.7910268133013	2655.798686016365	-3428.479340766575	98.93058657349799	2702.027268403598	-3458.903547521373	87.05163404367885	2615.983812154621	-3573.278539793047	62.11660727562005	2676.560592700949	-3516.309530386317	50.52763802634816	2763.113047580323	-3359.84177847752	74.37790544361718	2647.970260426308	-3515.486393361633	377.1394995804383	2327.901767404267	-3424.252135612601	495.5486428214327	2252.365162199127	-3546.547484180262	557.0748747812703	2339.534547573378	-3669.4702840895	394.6286636147254	2243.68624492347	-3684.532100070422	385.2770019746792	2367.125264021553	-3557.054360014171	167.4101998161124	2312.516927922957	-3482.285098235295	242.411274861259	2292.898782516922	-3563.645791773685	271.9768187214724	2238.923774446329	-3425.777303857907	109.0800128518671	2269.241619137134	-3453.997966013549	98.38034431946686	2354.038852642365	-3570.625731453305	59.5311725461602	2291.577082741655	-3517.558656398927	51.6431124581408	2209.345219417366	-3354.165687963829	79.39168108796574	2322.443114785323	-3419.34729706887	533.1249019523419	2715.414431050776	
174	25.49	-3556.769223959302	1046.749106657111	2482.403381662402	-3581.448393946259	989.3552351768834	2633.427789975368	-3607.954320547922	871.8134755289874	2484.077594593392	-3379.543483727245	618.1088834962458	2605.68513010885	-3382.154664653439	602.9497484936794	2338.675224630349	-3204.130449514241	688.1763774145908	2522.2679579278	-3215.53505419223	690.3772557368779	2431.119419933864	-3307.934755056956	617.0656704191171	2677.827945190709	-3292.965992141516	597.7120345244358	2261.636070318401	-3538.048904910766	576.6608768195753	2645.514735349895	-3477.59449218406	405.6934633464158	2678.3478972955	-3643.867283063914	425.824289326863	2724.780426168746	-3664.125249987153	409.9768578849199	2592.389498122464	-3543.700632898213	279.050655507099	2728.651840673591	-3547.804988415109	164.6599068482157	2675.11800274486	-3458.735175616983	211.7792308387761	2655.796519631173	-3428.489961301684	98.92784394069051	2702.0099611594	-3458.917469829887	87.05231450242115	2615.977626898223	-3573.286711714915	62.12768013565858	2676.565436182616	-3516.305750434185	50.53463835018376	2763.105391033077	-3359.841718661992	74.36115197653614	2647.926620568483	-3515.564627215222	376.9750641864389	2327.776035413301	-3424.281474435374	495.3416426753563	2252.235533369269	-3546.543002983763	556.9284296317786	2339.40309097531	-3669.487590581089	394.5090452046252	2243.665348181733	-3684.642870973054	385.2470384339385	2367.023683109846	-3557.072120983996	167.3699216436499	2312.484065520168	-3482.329341493717	242.3881024825712	2292.842522137017	-3563.698408982442	271.9055412299955	2238.847788481339	-3425.789806743812	109.0907701284366	2269.23808640271	-3454.029059182883	98.40220335325955	2354.028021718789	-3570.615860830736	59.53375045870449	2291.570519380398	-3517.553284928952	51.63924252279614	2209.341965634846	-3354.169481686758	79.39623473028549	2322.45337806406	-3419.391409607484	532.9400967253323	2715.37045624745	
175	25.495	-3556.51308494549	1046.667428736419	2482.310749833236	-3581.229825199399	989.2167309073568	2633.327826987105	-3607.826942442203	871.7967309480067	2483.952333260529	-3379.636435329573	617.8758487530868	2605.562198680399	-3382.143648880081	602.7441868804689	2338.542755056115	-3204.18657798123	687.9287011118433	2522.178023412568	-3215.560236134446	690.1248421597081	2431.030238857544	-3308.008567599068	616.8161471020513	2677.685038345223	-3292.951158042229	597.4790732448233	2261.499258480536	-3538.098704650698	576.5390047345769	2645.501063112933	-3477.664062864346	405.4692011221828	2678.366853440959	-3643.941576577171	425.7608766326637	2724.855832113981	-3664.231737683596	409.8734612663499	2592.478685227758	-3543.783035824174	279.0444650701863	2728.690508951748	-3547.81394783053	164.6246788955889	2675.125242911002	-3458.783432571724	211.7662470106423	2655.794572594096	-3428.500572284718	98.92689650511321	2701.992577825329	-3458.931292692102	87.05299328336972	2615.971533216595	-3573.295353332378	62.13989536939656	2676.57082431356	-3516.302077343797	50.54306453542733	2763.097690061148	-3359.840128682598	74.34025671100068	2647.882953876994	-3515.637937205008	376.8275592336623	2327.659637346165	-3424.312451851628	495.1553741793737	2252.110544767891	-3546.541647425028	556.7962008441283	2339.275503187428	-3669.501459990972	394.3957193520255	2243.651756412148	-3684.747556416929	385.2211880049109	2366.928077884669	-3557.089668113587	167.3315203397819	2312.454181333927	-3482.370032238067	242.3641464334866	2292.790552917737	-3563.749364879518	271.8380515014313	2238.774511915838	-3425.80150487832	109.0992147978027	2269.235119314444	-3454.056042956599	98.42025032178687	2354.019755124509	-3570.604241899985	59.53558220440681	2291.564444591833	-3517.547588367888	51.63525489711098	2209.338715906214	-3354.173266235109	79.39885708155754	2322.463602304737	-3419.436366850524	532.7797921472147	2715.328790992279	
